# xmcd
#
# Track frame offsets:
#	150
#	17461
#	28450
#	38727
#	50732
#	65784
#	77979
#	89451
#	104413
#	115116
#	127570
#
# Disc length: 1872 seconds
#
# Revision: 0
# Processed by: cddbd v1.5.2PL0 Copyright (c) Steve Scherf et al.
# Submitted via: EasyCDDAExtractor 16.0.6.1
#
DISCID=8f074e0b
DTITLE=Chris LeDoux - Western Tunesmith
DYEAR=1900
DGENRE=Country
TTITLE0=Country Star
TTITLE1=Ten Seconds in the Saddle
TTITLE2=Cowboy and the Rose
TTITLE3=Old Paint
TTITLE4=Dream on Cowboy
TTITLE5=Dirt and Sweat Cowboy
TTITLE6=Navajo Wrangler
TTITLE7=Come Riding Joe Cy
TTITLE8=Get Along Little Doggies
TTITLE9=All My Heroes Have Been Cowboys
TTITLE10=I Don`t Want to Be a Cowboy Anymore
EXTD=
EXTT0=
EXTT1=
EXTT2=
EXTT3=
EXTT4=
EXTT5=
EXTT6=
EXTT7=
EXTT8=
EXTT9=
EXTT10=
PLAYORDER=
